<svg width="107" height="40" viewBox="0 0 107 40" fill="none" xmlns="http://www.w3.org/2000/svg">
<path d="M10.3229 12.1185C9.69483 11.8985 8.81383 12.1114 8.35533 12.5936L2.07634 19.1965C1.61784 19.6787 1.7552 20.2478 2.38326 20.4678L17.3102 25.6932C17.9383 25.913 18.8191 25.7003 19.2778 25.2181L25.5568 18.6151C26.0153 18.1327 25.8779 17.5636 25.2499 17.3438L10.3229 12.1185Z" fill="#76E8FF"/>
<path d="M8.51747 25.2633C7.8894 25.0433 7.00841 25.256 6.54991 25.7382L0.270918 32.3414C-0.187579 32.8235 -0.0502215 33.3926 0.577844 33.6124L15.5048 38.8378C16.1329 39.0578 17.0136 38.8451 17.4724 38.3627L23.7511 31.7597C24.2099 31.2775 24.0723 30.7084 23.4442 30.4884L8.51747 25.2633Z" fill="#76E8FF"/>
<path d="M28.8595 37.301L29.4594 30.8209L31.1394 30.941C31.1394 32.3009 32.0195 33.6011 33.7793 34.8411C35.5394 36.0811 37.4395 36.7011 39.4795 36.7011C43.6794 36.7011 45.7794 35.4211 45.7794 32.861C45.7794 31.5809 45.2394 30.4411 44.1595 29.441C43.0795 28.4411 41.7794 27.6209 40.2594 26.981C38.7394 26.3009 37.2195 25.6209 35.6995 24.941C34.1793 24.221 32.8794 23.301 31.7995 22.181C30.7193 21.0208 30.1793 19.701 30.1793 18.2208C30.1793 13.0208 34.0195 10.4209 41.6995 10.4209C43.4194 10.4209 45.2996 10.9009 47.3396 11.8608L45.1167 17.9809H43.6766C43.6766 16.8609 44.8794 15.6609 43.5594 14.6208C42.2795 13.5809 40.8794 13.0608 39.3595 13.0608C37.8395 13.0608 36.5393 13.3609 35.4594 13.961C34.4195 14.5609 33.8994 15.4608 33.8994 16.6608C33.8994 17.8208 34.4394 18.7809 35.5193 19.5409C36.5995 20.3008 37.8994 20.9209 39.4194 21.4009C40.9396 21.881 42.4595 22.4209 43.9795 23.021C45.4994 23.6209 46.7994 24.6009 47.8796 25.961C48.9595 27.3209 49.4994 29.0211 49.4994 31.0611C49.4994 33.1009 48.8394 34.8011 47.5196 36.1609C45.1596 38.6009 41.7396 39.8211 37.2595 39.8211C33.7793 39.8211 30.9793 38.981 28.8595 37.301Z" fill="#76E8FF"/>
<path d="M78.3081 38.9812H69.6679V34.1812C67.6679 36.341 66.008 37.8212 64.6879 38.6212C63.3679 39.4212 61.568 39.8212 59.2878 39.8212C57.0479 39.8212 55.2878 39.3012 54.008 38.2612C52.768 37.1811 52.1479 35.6813 52.1479 33.7611C52.1479 31.8411 52.9678 29.9811 54.6079 28.1812C56.2879 26.341 58.228 24.961 60.4279 24.041C62.668 23.0811 64.628 22.3612 66.3081 21.8811C67.9879 21.361 69.1081 21.101 69.6679 21.101V19.7812C69.6679 16.0211 68.108 14.1411 64.988 14.1411C62.8279 14.1411 60.808 14.601 58.9278 15.5211C57.0879 16.441 55.7079 17.6211 54.7879 19.061L53.5878 17.981C56.268 12.781 60.9079 10.1809 67.5081 10.1809C69.1879 10.1809 70.5679 10.6411 71.648 11.5609C72.768 12.4409 73.5081 13.4811 73.8681 14.6811C74.2681 15.8811 74.4679 17.2211 74.4679 18.701V34.9011C74.4679 35.4212 74.508 35.8212 74.588 36.1011C74.6681 36.3811 74.908 36.6612 75.308 36.9412C75.748 37.1811 76.3881 37.3011 77.2279 37.3011H78.3081V38.9812ZM69.6679 30.8211V23.501C66.548 24.1011 63.648 25.3011 60.9679 27.101C58.2879 28.9011 56.948 30.8611 56.948 32.9812C56.948 33.8212 57.348 34.5611 58.148 35.2012C58.988 35.8011 60.008 36.1011 61.208 36.1011C62.448 36.1011 63.9081 35.5612 65.5879 34.4813C67.2679 33.3611 68.628 32.1412 69.6679 30.8211Z" fill="#76E8FF"/>
<path d="M87.9395 0C88.8596 0 89.5596 0.300057 90.0397 0.89994C90.5595 1.50006 90.8195 2.27993 90.8195 3.24003C90.8195 4.1601 90.4397 4.93998 89.6797 5.58012C88.9197 6.18 88.0797 6.48006 87.1596 6.48006C86.2796 6.48006 85.5795 6.18 85.0597 5.58012C84.5796 4.98 84.3395 4.23991 84.3395 3.3601C84.3395 2.44003 84.7196 1.65992 85.4796 1.02002C86.2396 0.340085 87.0597 0 87.9395 0ZM81.2797 38.7655L80.3196 37.2055C82.0794 36.1256 83.4196 34.8856 84.3395 33.4857C85.2596 32.0856 85.7195 30.2456 85.7195 27.9655V17.0208C85.7195 16.2608 85.4597 15.7208 84.9396 15.4009C84.4596 15.0409 83.5596 14.8609 82.2395 14.8609V13.1808C83.0395 13.1808 84.2395 12.9009 85.8395 12.3408C87.4796 11.7409 88.7196 11.1808 89.5596 10.6608L90.6396 10.4209V25.6855C90.6396 28.8055 89.7595 31.5255 87.9996 33.8457C86.2796 36.2056 84.0397 37.8457 81.2797 38.7655Z" fill="#76E8FF"/>
<path d="M100.142 0C101.062 0 101.762 0.300057 102.242 0.89994C102.762 1.50006 103.022 2.27993 103.022 3.24003C103.022 4.1601 102.642 4.93998 101.882 5.58012C101.122 6.18 100.282 6.48006 99.3617 6.48006C98.4817 6.48006 97.7816 6.18 97.2618 5.58012C96.7817 4.98 96.5416 4.23991 96.5416 3.3601C96.5416 2.44003 96.9217 1.65992 97.6817 1.02002C98.4417 0.340085 99.2618 0 100.142 0ZM106.562 38.981H94.4417V37.301H95.4018C96.4817 37.301 97.1616 37.121 97.4418 36.761C97.7617 36.401 97.9218 35.821 97.9218 35.021V17.0208C97.9218 16.2608 97.6618 15.7208 97.1417 15.4009C96.6617 15.0409 95.7617 14.8609 94.4417 14.8609V13.1808C95.2417 13.1808 96.4417 12.9009 98.0417 12.3408C99.6817 11.7409 100.922 11.1808 101.762 10.6608L102.842 10.4209V34.6611C102.842 35.301 102.862 35.7609 102.902 36.041C102.982 36.321 103.222 36.6009 103.622 36.8811C104.022 37.161 104.642 37.301 105.482 37.301H106.562V38.981Z" fill="#76E8FF"/>
</svg>
