<svg width="117" height="44" viewBox="0 0 117 44" fill="none" xmlns="http://www.w3.org/2000/svg">
<path d="M11.3212 13.2908C10.6324 13.0495 9.66614 13.283 9.1633 13.8119L2.27698 21.0535C1.77414 21.5823 1.92478 22.2064 2.61359 22.4477L18.9843 28.1785C19.6732 28.4195 20.6391 28.1863 21.1422 27.6575L28.0285 20.4158C28.5314 19.8868 28.3807 19.2626 27.6919 19.0216L11.3212 13.2908Z" fill="black"/>
<path d="M9.3413 27.7068C8.65249 27.4655 7.68628 27.6987 7.18344 28.2275L0.297122 35.4694C-0.205722 35.9982 -0.055079 36.6224 0.633734 36.8634L17.0045 42.5942C17.6933 42.8355 18.6592 42.6022 19.1623 42.0732L26.0484 34.8315C26.5515 34.3027 26.4006 33.6786 25.7118 33.4373L9.3413 27.7068Z" fill="black"/>
<path d="M31.6508 40.9088L32.3087 33.802L34.1512 33.9337C34.1512 35.4251 35.1164 36.851 37.0465 38.211C38.9768 39.571 41.0606 40.2509 43.298 40.2509C47.9041 40.2509 50.2072 38.8471 50.2072 36.0394C50.2072 34.6355 49.615 33.3854 48.4306 32.2886C47.2462 31.192 45.8203 30.2925 44.1533 29.5907C42.4863 28.8447 40.8193 28.099 39.1524 27.3533C37.4851 26.5638 36.0595 25.5547 34.8751 24.3264C33.6904 23.054 33.0983 21.6065 33.0983 19.9832C33.0983 14.2802 37.3098 11.4288 45.7327 11.4288C47.6189 11.4288 49.6809 11.9553 51.9183 13.008L49.4804 19.72H47.901C47.901 18.4918 49.2202 17.1757 47.7724 16.0349C46.3688 14.8945 44.8333 14.3241 43.1663 14.3241C41.4993 14.3241 40.0734 14.6532 38.889 15.3113C37.7485 15.9692 37.1781 16.9562 37.1781 18.2723C37.1781 19.5445 37.7703 20.5974 38.9547 21.4309C40.1394 22.2644 41.565 22.9444 43.232 23.4709C44.8992 23.9973 46.5662 24.5895 48.2332 25.2477C49.9002 25.9056 51.3258 26.9804 52.5105 28.472C53.6949 29.9634 54.287 31.828 54.287 34.0654C54.287 36.3025 53.5632 38.1671 52.1157 39.6585C49.5274 42.3345 45.7766 43.6727 40.8632 43.6727C37.0465 43.6727 33.9756 42.7514 31.6508 40.9088Z" fill="black"/>
<path d="M85.882 42.7515H76.4061V37.4872C74.2126 39.8559 72.3922 41.4793 70.9444 42.3567C69.4966 43.2341 67.5227 43.6727 65.022 43.6727C62.5654 43.6727 60.6351 43.1024 59.2315 41.9619C57.8715 40.7772 57.1915 39.1323 57.1915 37.0264C57.1915 34.9208 58.0907 32.8808 59.8894 30.9068C61.7319 28.8887 63.8597 27.3752 66.2723 26.3662C68.7291 25.3135 70.8787 24.5239 72.7212 23.9974C74.5635 23.427 75.7921 23.1418 76.4061 23.1418V21.6944C76.4061 17.5706 74.6952 15.5088 71.2735 15.5088C68.9045 15.5088 66.6892 16.0132 64.6272 17.0223C62.6093 18.0311 61.0958 19.3253 60.0868 20.9045L58.7707 19.7201C61.7101 14.0171 66.7988 11.1655 74.0373 11.1655C75.8796 11.1655 77.3931 11.6702 78.5777 12.679C79.806 13.6442 80.6177 14.7849 81.0125 16.101C81.4511 17.417 81.6704 18.8866 81.6704 20.5097V38.2768C81.6704 38.8472 81.7143 39.2858 81.8021 39.5928C81.8898 39.8998 82.1529 40.2071 82.5916 40.5141C83.0742 40.7772 83.7763 40.9089 84.6973 40.9089H85.882V42.7515ZM76.4061 33.8021V25.774C72.9844 26.4321 69.8039 27.7482 66.8645 29.7222C63.9254 31.6964 62.4558 33.846 62.4558 36.1711C62.4558 37.0924 62.8945 37.9038 63.7719 38.6059C64.6931 39.2638 65.8118 39.5928 67.1279 39.5928C68.4879 39.5928 70.0891 39.0007 71.9314 37.8163C73.774 36.5877 75.2656 35.2498 76.4061 33.8021Z" fill="black"/>
<path d="M96.4451 0C97.4541 0 98.2219 0.329079 98.7484 0.986984C99.3185 1.64515 99.6037 2.50045 99.6037 3.55341C99.6037 4.56248 99.1871 5.41778 98.3536 6.11984C97.5201 6.77775 96.5988 7.10683 95.5898 7.10683C94.6246 7.10683 93.8568 6.77775 93.2867 6.11984C92.7602 5.46168 92.4969 4.65001 92.4969 3.6851C92.4969 2.67603 92.9137 1.82047 93.7472 1.11867C94.5807 0.372979 95.4801 0 96.4451 0ZM89.1411 42.515L88.0881 40.8041C90.0182 39.6197 91.488 38.2598 92.4969 36.7245C93.5059 35.189 94.0103 33.1711 94.0103 30.6704V18.667C94.0103 17.8336 93.7254 17.2414 93.155 16.8905C92.6285 16.4957 91.6415 16.2983 90.1938 16.2983V14.4557C91.0712 14.4557 92.3872 14.1487 94.142 13.5345C95.9407 12.8765 97.3006 12.2623 98.2219 11.6919L99.4063 11.4288V28.1699C99.4063 31.5916 98.4411 34.5747 96.511 37.1193C94.6246 39.7075 92.168 41.5062 89.1411 42.515Z" fill="black"/>
<path d="M109.827 0C110.836 0 111.604 0.329079 112.131 0.986984C112.701 1.64515 112.986 2.50045 112.986 3.55341C112.986 4.56248 112.569 5.41778 111.736 6.11984C110.902 6.77775 109.981 7.10683 108.972 7.10683C108.007 7.10683 107.239 6.77775 106.669 6.11984C106.142 5.46168 105.879 4.65001 105.879 3.6851C105.879 2.67603 106.296 1.82047 107.129 1.11867C107.963 0.372979 108.862 0 109.827 0ZM116.868 42.7514H103.576V40.9088H104.629C105.813 40.9088 106.559 40.7114 106.866 40.3166C107.217 39.9218 107.393 39.2857 107.393 38.4083V18.667C107.393 17.8336 107.108 17.2414 106.537 16.8905C106.011 16.4957 105.024 16.2983 103.576 16.2983V14.4557C104.453 14.4557 105.769 14.1487 107.524 13.5345C109.323 12.8765 110.683 12.2623 111.604 11.6919L112.789 11.4288V38.0136C112.789 38.7154 112.811 39.2198 112.855 39.527C112.942 39.834 113.205 40.141 113.644 40.4483C114.083 40.7553 114.763 40.9088 115.684 40.9088H116.868V42.7514Z" fill="black"/>
</svg>
