<svg width="107" height="40" viewBox="0 0 107 40" fill="none" xmlns="http://www.w3.org/2000/svg">
<path d="M10.3229 12.1185C9.69483 11.8985 8.81383 12.1114 8.35533 12.5936L2.07634 19.1965C1.61784 19.6787 1.7552 20.2478 2.38326 20.4678L17.3102 25.6932C17.9383 25.913 18.8191 25.7003 19.2778 25.2181L25.5568 18.6151C26.0153 18.1327 25.8779 17.5636 25.2499 17.3438L10.3229 12.1185Z" fill="#4100F5"/>
<path d="M8.51747 25.2633C7.8894 25.0433 7.00841 25.256 6.54991 25.7382L0.270918 32.3414C-0.187579 32.8235 -0.0502215 33.3926 0.577844 33.6124L15.5048 38.8378C16.1329 39.0578 17.0136 38.8451 17.4724 38.3627L23.7511 31.7597C24.2099 31.2775 24.0723 30.7084 23.4442 30.4884L8.51747 25.2633Z" fill="#4100F5"/>
<path d="M28.8594 37.3008L29.4593 30.8207L31.1393 30.9408C31.1393 32.3006 32.0194 33.6008 33.7792 34.8408C35.5393 36.0809 37.4394 36.7009 39.4794 36.7009C43.6793 36.7009 45.7792 35.4208 45.7792 32.8607C45.7792 31.5807 45.2393 30.4408 44.1593 29.4407C43.0794 28.4408 41.7792 27.6207 40.2593 26.9808C38.7393 26.3006 37.2194 25.6207 35.6994 24.9407C34.1792 24.2208 32.8793 23.3007 31.7993 22.1808C30.7192 21.0206 30.1792 19.7007 30.1792 18.2206C30.1792 13.0205 34.0194 10.4207 41.6994 10.4207C43.4193 10.4207 45.2994 10.9007 47.3395 11.8606L45.1166 17.9806H43.6765C43.6765 16.8607 44.8793 15.6607 43.5592 14.6205C42.2794 13.5806 40.8793 13.0606 39.3593 13.0606C37.8394 13.0606 36.5392 13.3606 35.4593 13.9607C34.4194 14.5606 33.8993 15.4606 33.8993 16.6606C33.8993 17.8205 34.4393 18.7806 35.5192 19.5406C36.5994 20.3006 37.8993 20.9206 39.4193 21.4007C40.9394 21.8807 42.4594 22.4207 43.9794 23.0208C45.4993 23.6207 46.7993 24.6007 47.8794 25.9608C48.9594 27.3206 49.4993 29.0208 49.4993 31.0608C49.4993 33.1006 48.8393 34.8008 47.5194 36.1607C45.1595 38.6007 41.7394 39.8208 37.2594 39.8208C33.7792 39.8208 30.9792 38.9808 28.8594 37.3008Z" fill="#4100F5"/>
<path d="M78.3081 38.981H69.6679V34.1809C67.6679 36.3408 66.008 37.821 64.6879 38.621C63.3679 39.421 61.568 39.821 59.2878 39.821C57.0479 39.821 55.2878 39.3009 54.008 38.261C52.768 37.1808 52.1479 35.681 52.1479 33.7608C52.1479 31.8409 52.9678 29.9808 54.6079 28.1809C56.2879 26.3408 58.228 24.9608 60.4279 24.0407C62.668 23.0809 64.628 22.3609 66.3081 21.8809C67.9879 21.3608 69.1081 21.1008 69.6679 21.1008V19.7809C69.6679 16.0208 68.108 14.1409 64.988 14.1409C62.8279 14.1409 60.808 14.6008 58.9278 15.5209C57.0879 16.4407 55.7079 17.6208 54.7879 19.0607L53.5878 17.9808C56.268 12.7808 60.9079 10.1807 67.5081 10.1807C69.1879 10.1807 70.5679 10.6408 71.648 11.5607C72.768 12.4407 73.5081 13.4808 73.8681 14.6808C74.2681 15.8808 74.4679 17.2208 74.4679 18.7007V34.9009C74.4679 35.421 74.508 35.821 74.588 36.1009C74.6681 36.3808 74.908 36.661 75.308 36.9409C75.748 37.1808 76.3881 37.3009 77.2279 37.3009H78.3081V38.981ZM69.6679 30.8208V23.5008C66.548 24.1009 63.648 25.3009 60.9679 27.1008C58.2879 28.9009 56.948 30.8609 56.948 32.981C56.948 33.821 57.348 34.5608 58.148 35.201C58.988 35.8008 60.008 36.1009 61.208 36.1009C62.448 36.1009 63.9081 35.5609 65.5879 34.481C67.2679 33.3608 68.628 32.1409 69.6679 30.8208Z" fill="#4100F5"/>
<path d="M87.9394 0C88.8594 0 89.5595 0.300057 90.0395 0.89994C90.5594 1.50006 90.8194 2.27993 90.8194 3.24003C90.8194 4.1601 90.4396 4.93998 89.6796 5.58012C88.9196 6.18 88.0796 6.48006 87.1595 6.48006C86.2795 6.48006 85.5794 6.18 85.0596 5.58012C84.5795 4.98 84.3394 4.23991 84.3394 3.3601C84.3394 2.44003 84.7195 1.65992 85.4795 1.02002C86.2394 0.340085 87.0596 0 87.9394 0ZM81.2796 38.7655L80.3195 37.2055C82.0793 36.1256 83.4195 34.8856 84.3394 33.4857C85.2594 32.0856 85.7194 30.2456 85.7194 27.9655V17.0208C85.7194 16.2608 85.4596 15.7208 84.9395 15.4009C84.4594 15.0409 83.5595 14.8609 82.2394 14.8609V13.1808C83.0394 13.1808 84.2394 12.9009 85.8394 12.3408C87.4794 11.7409 88.7195 11.1808 89.5595 10.6608L90.6394 10.4209V25.6855C90.6394 28.8055 89.7594 31.5255 87.9995 33.8457C86.2794 36.2056 84.0395 37.8457 81.2796 38.7655Z" fill="#4100F5"/>
<path d="M100.142 0C101.062 0 101.762 0.300057 102.242 0.89994C102.762 1.50006 103.022 2.27993 103.022 3.24003C103.022 4.1601 102.642 4.93998 101.882 5.58012C101.122 6.18 100.282 6.48006 99.3617 6.48006C98.4817 6.48006 97.7816 6.18 97.2618 5.58012C96.7817 4.98 96.5416 4.23991 96.5416 3.3601C96.5416 2.44003 96.9217 1.65992 97.6817 1.02002C98.4417 0.340085 99.2618 0 100.142 0ZM106.562 38.981H94.4417V37.301H95.4018C96.4817 37.301 97.1616 37.121 97.4418 36.761C97.7617 36.401 97.9218 35.821 97.9218 35.021V17.0208C97.9218 16.2608 97.6618 15.7208 97.1417 15.4009C96.6617 15.0409 95.7617 14.8609 94.4417 14.8609V13.1808C95.2417 13.1808 96.4417 12.9009 98.0417 12.3408C99.6817 11.7409 100.922 11.1808 101.762 10.6608L102.842 10.4209V34.6611C102.842 35.301 102.862 35.7609 102.902 36.041C102.982 36.321 103.222 36.6009 103.622 36.8811C104.022 37.161 104.642 37.301 105.482 37.301H106.562V38.981Z" fill="#4100F5"/>
</svg>
