<svg width="1197" height="1106" viewBox="0 0 1197 1106" fill="none" xmlns="http://www.w3.org/2000/svg">
<path d="M1133.73 853.393L1167.48 925.62C1167.48 925.62 1053.64 985.605 1052.77 986.063C1051.9 986.524 1019.59 907.362 1019.59 907.362" fill="#A85C47"/>
<path d="M1036.45 963.179L1161.26 904.139L1196.57 978.853L1002.43 1083.01C979.619 1032.94 1026.57 1030.14 1036.85 982.412C1039.23 971.402 1036.45 963.179 1036.45 963.179Z" fill="#4C4139"/>
<path d="M1190.2 966.93L998.045 1071.78" stroke="black" stroke-width="0.850844" stroke-miterlimit="10"/>
<path d="M1009.25 1031.69C1009.25 1031.69 1031 1026.91 1047.31 1044.17" stroke="black" stroke-width="0.850844" stroke-miterlimit="10"/>
<path d="M1034.6 986.444L1057.99 992.561" stroke="black" stroke-width="0.850844" stroke-miterlimit="10"/>
<path d="M1036.67 973.785L1060.62 976.818" stroke="black" stroke-width="0.850844" stroke-miterlimit="10"/>
<path d="M1027.88 1004.04L1048.64 1008.82" stroke="black" stroke-width="0.850844" stroke-miterlimit="10"/>
<path d="M1161.46 949.853C1163.99 956.998 1160.78 965.563 1154.28 968.986C1147.79 972.406 1140.48 969.388 1137.94 962.243C1135.41 955.099 1138.62 946.534 1145.12 943.11C1151.61 939.69 1158.93 942.706 1161.46 949.853Z" stroke="black" stroke-width="0.850844" stroke-miterlimit="10"/>
<path d="M847.172 928.213L848.649 1007.92C848.649 1007.92 720.261 1016.46 719.278 1016.53C718.294 1016.59 720.943 931.134 720.943 931.134" fill="#A85C47"/>
<path d="M713.668 988.99L851.696 985.771L853.592 1068.39L633.877 1084.65C633.386 1029.64 677.423 1046.15 706.219 1006.73C712.864 997.629 713.668 988.99 713.668 988.99Z" fill="#4C4139"/>
<path d="M852.623 1054.9L634.44 1072.62" stroke="black" stroke-width="0.850844" stroke-miterlimit="10"/>
<path d="M660.971 1040.53C660.971 1040.53 682.786 1045 690.674 1067.4" stroke="black" stroke-width="0.850844" stroke-miterlimit="10"/>
<path d="M702.524 1009.49L721.412 1024.59" stroke="black" stroke-width="0.850844" stroke-miterlimit="10"/>
<path d="M709.553 998.766L730.207 1011.27" stroke="black" stroke-width="0.850844" stroke-miterlimit="10"/>
<path d="M689.228 1022.84L706.257 1035.65" stroke="black" stroke-width="0.850844" stroke-miterlimit="10"/>
<path d="M833.304 1027.62C832.714 1035.17 826.299 1041.7 818.974 1042.18C811.652 1042.67 806.194 1036.94 806.785 1029.38C807.376 1021.82 813.791 1015.3 821.115 1014.82C828.437 1014.33 833.895 1020.06 833.304 1027.62Z" stroke="black" stroke-width="0.850844" stroke-miterlimit="10"/>
<path d="M812.367 421.163C812.367 421.163 744.688 511.997 709.681 596.541C694.881 632.281 685.072 707.615 678.383 769.732C673.734 812.897 665.187 949.227 665.187 949.227L856.522 953.418L860.769 672.879C860.769 672.879 930.834 550.635 939.08 530.197C947.326 509.756 980.804 465.191 955.496 406.611" fill="#A2BDFF"/>
<path d="M825.664 953.421C825.664 953.421 836.468 708.439 842.256 687.009C848.045 665.578 945.935 513.465 945.935 513.465" stroke="black" stroke-width="0.850844" stroke-miterlimit="10"/>
<path d="M905.36 482.572C905.36 482.572 885.256 641.431 889.902 680.018C894.74 720.191 903.907 755.63 922.021 802.501C948.207 870.251 992.831 961.951 992.831 961.951L1159.55 893.114L1052.57 684.545C1052.57 684.545 1070.23 497.363 1063.19 438.222C1057.49 390.234 1047.69 374.631 1023.14 341.1" fill="#A2BDFF"/>
<path d="M1126.2 907.04L1035.53 730.277C1024.96 709.679 1020.36 686.551 1022.26 663.481C1026.97 606.39 1034.97 495.257 1029.84 452.148C1024.13 404.16 1014.33 388.557 989.788 355.026" stroke="black" stroke-width="0.850844" stroke-miterlimit="10"/>
<path d="M891.281 619.091L899.899 503.692" stroke="black" stroke-width="0.850844" stroke-miterlimit="10"/>
<path d="M944.546 461.755C944.546 461.755 963.815 485.404 974.566 485.404C985.316 485.404 1031.04 485.404 1031.04 485.404" stroke="black" stroke-width="0.850844" stroke-miterlimit="10"/>
<path d="M934.824 743.376C953.724 755.893 972.008 769.34 989.588 783.655" stroke="black" stroke-width="0.850844" stroke-miterlimit="10"/>
<path d="M963.821 739.985C971.022 743.795 978.899 746.326 986.971 747.422" stroke="black" stroke-width="0.850844" stroke-miterlimit="10"/>
<path d="M707.764 686.415C712.421 701.221 717.082 716.027 721.742 730.835" stroke="black" stroke-width="0.850844" stroke-miterlimit="10"/>
<path d="M721.55 678.792C726.037 687.431 731.586 695.518 738.04 702.807" stroke="black" stroke-width="0.850844" stroke-miterlimit="10"/>
<path d="M762.18 496.274C776.625 495.922 787.001 494.726 801.219 492.443C803.431 492.088 805.679 491.696 807.646 490.739C810.189 489.498 812.04 487.422 813.821 485.402C821.811 476.332 829.797 467.262 837.786 458.194" stroke="black" stroke-width="0.850844" stroke-miterlimit="10"/>
<path d="M967.675 908.57L1134.06 843.41" stroke="black" stroke-width="0.850844" stroke-miterlimit="10"/>
<path d="M857.385 896.505L669.287 886.726" stroke="black" stroke-width="0.850844" stroke-miterlimit="10"/>
<path d="M637.504 302.059L631.015 322.506L516.757 293.653L501.508 375.098C501.508 375.098 587.779 433.013 628.319 445.598C668.858 458.179 712.679 454.411 725.205 393.262C737.73 332.116 745.079 290.147 745.079 290.147" fill="#894434"/>
<path d="M722.61 176.547C722.61 176.547 668.45 178.55 652.959 207.373C637.468 236.196 623.061 311.447 623.061 311.447L743.627 339.242L754.381 263.489" fill="#FFE689"/>
<path d="M717.142 187.889C717.142 187.889 733.782 204.006 758.071 191.244C782.36 178.482 787.328 142.786 787.328 142.786C787.328 142.786 820.67 130.379 853.282 134.319C899.708 139.927 924.319 166.769 949.967 202.154C989.458 256.637 1066.17 406.609 1066.17 406.609C1066.17 406.609 1023.99 487.965 907.381 502.824C804.163 515.976 776.657 472.577 776.657 472.577L694.096 237.38L717.142 187.889Z" fill="#FFE689"/>
<path d="M733.844 329.777L702.699 258.891" stroke="black" stroke-width="0.850844" stroke-miterlimit="10"/>
<path d="M730.113 222.409C743.663 226.461 759.453 224.087 772.554 216.502C796.412 202.692 814.198 168.307 807.748 138.247" stroke="#CC8A4A" stroke-width="1.27627" stroke-miterlimit="10"/>
<path d="M701.521 191.501C704.548 203.076 710.597 211.372 718.27 216.732" stroke="#CC8A4A" stroke-width="1.27627" stroke-miterlimit="10"/>
<path d="M744.262 102.669L778.238 110.567L779.582 121.483L789.116 142.163C789.116 142.163 792.926 183.293 754.862 199.277C732.643 208.607 717.465 192.821 717.465 192.821L702.697 158.2" fill="#A85C47"/>
<path d="M669.434 148.986C662.47 133.642 659.401 115.304 658.255 102.129C657.283 90.9763 657.174 73.9879 663.421 64.4984C671.463 52.2739 688.286 50.2803 702.259 47.1792C725.199 42.0874 743.51 61.3913 752.501 80.2965C759.409 94.8188 763.736 110.115 760.522 126.202C755.297 152.358 731.655 181.078 702.454 177.732C686.588 175.912 676.18 163.853 669.434 148.986Z" fill="#A85C47"/>
<path d="M699.975 108.665C700.489 111.429 702.622 113.349 704.733 112.956C706.848 112.563 708.145 110.003 707.628 107.241C707.114 104.477 704.981 102.557 702.87 102.95C700.755 103.343 699.459 105.903 699.975 108.665Z" fill="black"/>
<path d="M663.057 117.923C663.571 120.688 665.703 122.608 667.815 122.215C669.929 121.822 671.226 119.261 670.709 116.5C670.195 113.735 668.063 111.816 665.951 112.208C663.839 112.601 662.543 115.162 663.057 117.923Z" fill="black"/>
<path d="M679.372 109.273C679.372 109.273 679.951 122.472 679.118 127.153C678.504 130.609 676.871 136.202 681.629 137.449C684.6 138.226 691.319 136.979 691.319 136.979" stroke="black" stroke-width="0.850844" stroke-miterlimit="10"/>
<path d="M796.843 68.763C797.888 79.7824 795.995 91.0027 791.509 100.977C790.682 102.814 779.583 121.48 779.583 121.48L751.164 88.5661C751.164 88.5661 739.102 82.4553 737.327 82.5321C731.799 82.7654 726.273 80.5681 721.866 77.1775C716.455 73.016 712.515 67.177 709.269 61.1342C708.9 65.6677 704.113 68.3938 699.688 69.0702C691.265 70.3579 683.692 66.8344 677.561 61.1105C676.013 72.4548 662.746 85.1843 651.272 85.1991C637.949 85.2168 623.769 79.5432 617.765 66.5656C612.977 56.2107 613.757 44.1635 618.285 34.352C622.366 25.5123 630.858 21.4572 639.715 17.656C648.573 13.8549 660.641 13.3115 668.051 15.4527C669.607 9.56646 674.826 5.43159 680.325 3.02451C696.188 -3.91321 716.582 1.4444 727.492 15.4114C728.142 16.2443 728.816 17.1451 729.793 17.5231C730.83 17.9248 731.976 17.6472 733.045 17.3961C744.945 14.5992 758.847 15.1249 770.096 20.6715C786.97 28.9856 795.165 51.0835 796.843 68.763Z" fill="black"/>
<path d="M743.849 159.458C743.314 159.942 731.958 177.043 707.958 178.691" stroke="black" stroke-width="0.850844" stroke-miterlimit="10"/>
<path d="M696.082 146.752C697.963 147.756 699.877 148.772 701.968 149.192C704.059 149.611 706.39 149.348 708.046 148.005C709.021 147.213 709.695 146.108 710.211 144.962C711.954 141.099 712.049 136.524 710.463 132.593" stroke="black" stroke-width="0.850844" stroke-miterlimit="10"/>
<path d="M720.308 104.232C720.385 113.16 713.208 120.458 704.282 120.535C695.354 120.612 688.056 113.435 687.979 104.509C687.902 95.5838 695.079 88.2828 704.005 88.2061C712.936 88.1293 720.234 95.3032 720.308 104.232Z" stroke="#E88852" stroke-width="0.850844" stroke-miterlimit="10"/>
<path d="M675.081 115.325C675.158 124.253 668.575 131.545 660.376 131.616C652.177 131.687 645.472 124.507 645.396 115.579C645.319 106.65 651.902 99.3583 660.101 99.2875C668.3 99.2195 675.007 106.399 675.081 115.325Z" stroke="#E88852" stroke-width="0.850844" stroke-miterlimit="10"/>
<path d="M718.089 96.2068L756.797 94.8394" stroke="#E88852" stroke-width="0.850844" stroke-miterlimit="10"/>
<path d="M687.963 102.56L671.953 105.569" stroke="#E88852" stroke-width="0.850844" stroke-miterlimit="10"/>
<path d="M737.924 106.246C737.263 97.9612 747.765 90.356 755.37 92.2521C773.655 96.8123 770.891 129.014 754.798 133.695C750.243 135.018 743.403 133.864 741.232 128.775" fill="#A85C47"/>
<path d="M758.07 106.216L744.286 121.479" stroke="black" stroke-width="0.850844" stroke-miterlimit="10"/>
<path d="M744.687 95.2673C741.216 97.8605 738.567 101.579 737.191 105.785" stroke="black" stroke-width="0.850844" stroke-miterlimit="10"/>
<path d="M768.088 117.301C766.496 124.286 762.571 131.909 755.344 133.864C750.326 135.222 744.259 133.574 741.637 128.492" stroke="black" stroke-width="0.850844" stroke-miterlimit="10"/>
<path d="M821.057 279.144L826.163 314.914L720.216 312.593L720.695 400.048C720.695 400.048 859.015 428.13 900.183 419.26C934.32 411.906 960.676 387.215 951.361 334.507C940.203 271.359 928.144 229.47 928.144 229.47" fill="#A85C47"/>
<path d="M802.275 194.336L821.874 297.48L951.685 287.397L937.405 204.41" fill="#FFE689"/>
<path d="M815.477 263.81L945.935 253.969" stroke="#CC8A4A" stroke-width="1.27627" stroke-miterlimit="10"/>
<path d="M951.686 287.396L937.406 204.41" stroke="black" stroke-width="0.850844" stroke-miterlimit="10"/>
<path d="M802.275 194.336L821.874 297.48" stroke="black" stroke-width="0.850844" stroke-miterlimit="10"/>
<path d="M826.164 314.914C826.164 314.914 880.726 312.548 899.9 320.082" stroke="black" stroke-width="0.850844" stroke-miterlimit="10"/>
<path d="M128.902 565.39C128.902 565.39 117.903 625.907 126.134 661.72C135.553 702.688 187.794 818.444 187.794 818.444L116.045 975.604L211.319 1016.16C211.319 1016.16 294.76 874.507 302.109 849.677C309.457 824.847 309.413 778.782 284.621 719.124C261.841 664.305 223.378 588.761 223.378 588.761" fill="#FFCBA4"/>
<path d="M223.764 1003.6L118.345 962.751L84.2651 1032.54L263.627 1105.02C273.376 1054.73 210.76 1043.08 223.764 1003.6Z" fill="#19181E"/>
<path d="M89.8501 1020.86L264.669 1091.29" stroke="#68534E" stroke-width="0.850844" stroke-miterlimit="10"/>
<path d="M244.261 1051.83C244.261 1051.83 226.726 1053.5 216.504 1071.88" stroke="#68534E" stroke-width="0.850844" stroke-miterlimit="10"/>
<path d="M221.103 1024.25L203.681 1034.31" stroke="#68534E" stroke-width="0.850844" stroke-miterlimit="10"/>
<path d="M229.136 1034.85L211.711 1044.9" stroke="#68534E" stroke-width="0.850844" stroke-miterlimit="10"/>
<path d="M249.294 1020.28C250.168 1021.04 251.01 1021.94 251.338 1023.16C251.908 1025.28 250.706 1027.82 249.011 1029.27C247.315 1030.71 245.242 1031.29 243.237 1031.74C238.068 1032.9 220.888 1024.19 220.888 1024.19C220.888 1024.19 242.994 1014.83 249.294 1020.28Z" stroke="#68534E" stroke-width="0.850844" stroke-miterlimit="10" stroke-linejoin="round"/>
<path d="M238.738 996.362C239.872 995.96 241.083 995.656 242.164 995.995C244.042 996.583 244.979 999.008 244.807 1001.31C244.633 1003.61 243.591 1005.81 242.51 1007.87C239.722 1013.2 221.676 1024.34 221.676 1024.34C221.676 1024.34 230.545 999.265 238.738 996.362Z" stroke="#68534E" stroke-width="0.850844" stroke-miterlimit="10" stroke-linejoin="round"/>
<path d="M147.778 1044.2L131.979 1002.32" stroke="#68534E" stroke-width="0.850844" stroke-miterlimit="10"/>
<path d="M126.861 1035.77L116.045 1007.11" stroke="#68534E" stroke-width="0.850844" stroke-miterlimit="10"/>
<path d="M376.213 548.257C376.213 548.257 425.701 635.464 435.66 654.52C445.619 673.573 477.192 725.607 495.483 775.438C513.774 825.272 556.457 981.189 556.457 981.189L447.722 1005.56L379.863 787.376C379.863 787.376 288.675 672.844 261.641 622.336C243.159 587.798 244.57 521.667 246.526 505.284" fill="#FFCBA4"/>
<path d="M553.124 968.92L444.035 998.605L458.022 1075L645.397 1026.89C623.396 980.625 566.087 1008.41 553.124 968.92Z" fill="#19181E"/>
<path d="M455.589 1062.29L638.087 1015.22" stroke="#68534E" stroke-width="0.850844" stroke-miterlimit="10"/>
<path d="M598.244 995.569C598.244 995.569 585.119 1007.32 587.806 1028.18" stroke="#68534E" stroke-width="0.850844" stroke-miterlimit="10"/>
<path d="M563.241 987.119L555.184 1005.55" stroke="#68534E" stroke-width="0.850844" stroke-miterlimit="10"/>
<path d="M575.993 990.879L567.936 1009.32" stroke="#68534E" stroke-width="0.850844" stroke-miterlimit="10"/>
<path d="M583.574 967.199C584.726 967.29 585.933 967.509 586.923 968.297C588.642 969.668 589.185 972.432 588.677 974.6C588.169 976.768 586.843 978.463 585.499 980.017C582.029 984.022 563.029 987.203 563.029 987.203C563.029 987.203 575.266 966.543 583.574 967.199Z" stroke="#68534E" stroke-width="0.850844" stroke-miterlimit="10" stroke-linejoin="round"/>
<path d="M560.88 954.206C561.553 953.208 562.348 952.248 563.42 951.879C565.28 951.238 567.475 952.635 568.701 954.59C569.926 956.545 570.39 958.932 570.747 961.235C571.666 967.178 563.753 986.854 563.753 986.854C563.753 986.854 556.01 961.407 560.88 954.206Z" stroke="#68534E" stroke-width="0.850844" stroke-miterlimit="10" stroke-linejoin="round"/>
<path d="M516.061 1046.69L478.496 1022.37" stroke="#68534E" stroke-width="0.850844" stroke-miterlimit="10"/>
<path d="M494.224 1052.32L468.508 1035.67" stroke="#68534E" stroke-width="0.850844" stroke-miterlimit="10"/>
<path d="M187.794 818.444L196.879 837.825" stroke="black" stroke-width="0.850844" stroke-miterlimit="10"/>
<path d="M334.677 466.487L251.687 434.968L128.66 444.655L111.01 466.487C111.01 466.487 82.2195 508.734 97.0253 582.766C111.831 656.8 135.577 726.721 135.577 726.721L453.099 656.809L334.677 466.487Z" fill="#4C4139"/>
<path d="M142.568 459.104C142.568 459.104 113.778 501.35 128.583 575.382C143.389 649.417 167.135 719.337 167.135 719.337" stroke="#70635B" stroke-width="0.850844" stroke-miterlimit="10"/>
<path d="M133.371 597.884L161.999 592.397C186.545 587.692 204.063 565.889 203.371 540.906L201.49 472.94" stroke="#70635B" stroke-width="0.850844" stroke-miterlimit="10"/>
<path d="M292.968 461.682L318.917 516.856C329.887 542.997 357.555 558 385.448 552.932L387.719 552.519" stroke="#70635B" stroke-width="0.850844" stroke-miterlimit="10"/>
<path d="M254.473 647.16C282.926 631.628 308.291 610.466 328.67 585.255" stroke="black" stroke-width="0.850844" stroke-miterlimit="10"/>
<path d="M240.413 605.162C258.807 597.494 277.205 589.824 295.599 582.157" stroke="black" stroke-width="0.850844" stroke-miterlimit="10"/>
<path d="M309.243 333.897C309.243 333.897 369.547 412.099 421.449 400.421C468.929 389.738 547.028 259.776 547.028 259.776L471.132 208.539L401.058 287.911L356.971 251.117" fill="#F4B184"/>
<path d="M275.234 198.282C292.158 199.83 304.238 201.31 318.143 211.195C345.344 230.531 396.484 272.825 396.484 272.825L327.933 362.36L239.276 285.008" fill="#DD5C3E"/>
<path d="M382.88 261.685C381.618 260.66 320.352 346.898 320.352 346.898" stroke="#F98355" stroke-width="0.850844" stroke-miterlimit="10"/>
<path d="M371.802 252.65C370.54 251.622 309.273 337.863 309.273 337.863" stroke="#F98355" stroke-width="0.850844" stroke-miterlimit="10"/>
<path d="M365.939 245.585C364.678 244.557 303.411 330.799 303.411 330.799" stroke="#F98355" stroke-width="0.850844" stroke-miterlimit="10"/>
<path d="M263.019 188.736L325.901 244.652C325.901 244.652 343.974 284.444 344.009 320.004C344.044 355.567 340.539 371.811 340.539 383.471C340.539 395.131 356.195 466.487 356.195 466.487H111.006C111.006 466.487 98.9 356.42 111.937 298.296C128.402 224.881 195.104 190.987 195.104 190.987" fill="#DD5C3E"/>
<path d="M254.522 220.744L271.386 295.254" stroke="black" stroke-width="0.850844" stroke-miterlimit="10"/>
<path d="M331.652 260.066C347.335 300.396 344.641 337.864 341.623 367.874" stroke="black" stroke-width="0.850844" stroke-miterlimit="10"/>
<path d="M264.552 289.244C264.552 291.872 262.42 294.005 259.791 294.005C257.163 294.005 255.03 291.872 255.03 289.244C255.03 286.615 257.163 284.483 259.791 284.483C262.42 284.483 264.552 286.615 264.552 289.244Z" fill="black"/>
<path d="M253.03 262.759C255.659 262.759 257.791 260.628 257.791 257.998C257.791 255.369 255.659 253.237 253.03 253.237C250.401 253.237 248.269 255.369 248.269 257.998C248.269 260.628 250.401 262.759 253.03 262.759Z" fill="black"/>
<path d="M209.063 140.607C208.531 140.947 182.248 197.612 182.248 197.612C182.248 197.612 206.726 231.453 253.799 220.655C268.212 217.35 271.387 206.026 271.387 206.026L273.655 171.255" fill="#FFCBA4"/>
<path d="M284.313 127.517C291.966 135.328 304.5 135.461 312.312 127.809C320.124 120.156 320.257 107.622 312.605 99.807C304.952 91.9951 292.418 91.8622 284.603 99.5146C276.791 107.17 276.661 119.705 284.313 127.517Z" fill="#27243A"/>
<path d="M318.275 115.712C324.218 121.781 333.955 121.881 340.025 115.939C346.094 109.997 346.195 100.259 340.252 94.1896C334.31 88.1202 324.572 88.0198 318.503 93.9622C312.433 99.9076 312.333 109.645 318.275 115.712Z" fill="#27243A"/>
<path d="M347.235 96.293C352.081 101.243 360.023 101.326 364.973 96.4791C369.923 91.6324 370.006 83.6905 365.159 78.7405C360.313 73.7905 352.371 73.7078 347.421 78.5544C342.471 83.4011 342.388 91.343 347.235 96.293Z" fill="#27243A"/>
<path d="M369.196 72.1036C373.299 76.2946 380.024 76.3625 384.212 72.2601C388.403 68.1577 388.471 61.4327 384.368 57.2446C380.266 53.0537 373.541 52.9857 369.353 57.0881C365.162 61.1905 365.094 67.9126 369.196 72.1036Z" fill="#27243A"/>
<path d="M361.952 9.91825C367.472 4.20918 381.478 -4.0576 399.11 2.28942C405.085 4.43955 417.469 12.8688 416.113 21.0971C414.438 31.2748 406.641 39.8192 399.866 47.138C397.559 49.6307 394.591 51.7926 391.2 52.0053C389.346 52.1205 387.512 51.645 385.713 51.1724C383.542 50.6024 381.371 50.0324 379.2 49.4594C375.718 48.5409 374.785 32.6275 373.651 28.9564C371.436 21.7971 367.998 14.6202 361.952 9.91825Z" fill="#27243A"/>
<path d="M259.088 70.8746C250.014 63.6534 239.149 58.9042 227.379 58.8688C212.225 58.8185 197.138 67.1415 186.467 77.4284C168.947 94.3223 175.135 121.175 186.314 139.756C194.903 154.03 203.834 164.494 219.561 170.924C245.135 181.379 285.261 179.424 299.078 152.293C306.777 137.174 303.162 119.938 293.014 107.666C282.86 95.3885 272.139 81.2591 259.088 70.8746Z" fill="#FFCBA4"/>
<path d="M258.229 98.6996C261.197 101.186 264.452 103.328 267.907 105.073C270.55 106.408 273.339 107.528 275.663 109.362C277.984 111.196 277.76 114.796 275.196 118.004" stroke="black" stroke-width="0.850844" stroke-miterlimit="10"/>
<path d="M243.894 114.838C245.909 117.386 245.962 120.7 244.013 122.242C242.063 123.784 238.85 122.966 236.836 120.417C234.821 117.868 234.768 114.554 236.718 113.012C238.667 111.474 241.88 112.292 243.894 114.838Z" fill="black"/>
<path d="M274.915 89.3376C276.929 91.8864 276.982 95.2002 275.033 96.7419C273.084 98.2837 269.87 97.4655 267.856 94.9167C265.842 92.3678 265.789 89.054 267.738 87.5123C269.687 85.9706 272.901 86.7887 274.915 89.3376Z" fill="black"/>
<path d="M280.172 126.388C276.98 126.093 274.419 129.176 275.473 132.207C276.005 133.734 276.982 135.012 278.737 135.305C281.026 135.686 282.532 134.717 283.524 133.314C285.474 130.553 283.539 126.698 280.172 126.388Z" fill="white"/>
<path d="M232.44 96.8956C230 96.5678 227.593 97.8585 225.824 99.5715C221.94 103.331 220.445 109.052 220.741 114.451" stroke="black" stroke-width="0.850844" stroke-miterlimit="10"/>
<path d="M253.798 82.1014C254.232 77.1012 258.946 74.4165 265.048 76.1915" stroke="black" stroke-width="0.850844" stroke-miterlimit="10"/>
<path d="M248.786 30.7106C231.514 21.673 214.807 24.4138 201.985 34.7717C174.196 33.673 141.823 55.9629 133.477 76.268C127.7 90.3206 127.038 106.42 130.576 121.137C135.231 140.509 144.868 159.778 163.871 167.073C176.562 171.943 187.484 173.319 200.535 170.07C200.535 170.07 192.839 142.503 189.726 144.139C189.726 144.139 214.219 101.757 209.487 65.352C225.032 56.143 249.607 61.288 265.447 76.3714C265.447 76.3714 280.991 47.5632 248.786 30.7106Z" fill="#27243A"/>
<path d="M204.099 141.608C198.154 135.462 184.654 138.453 180.625 145.651C170.935 162.958 197.915 182.699 213.187 173.378C217.508 170.741 221.56 164.639 219.183 159.494" fill="#FFCBA4"/>
<path d="M189.506 157.24L211.317 156.906" stroke="black" stroke-width="0.850844" stroke-miterlimit="10"/>
<path d="M193.081 138.465C196.743 137.998 200.547 138.698 203.802 140.444" stroke="black" stroke-width="0.850844" stroke-miterlimit="10"/>
<path d="M207.094 175.372C210.863 175.033 214.72 174.082 217.656 171.695C220.592 169.309 222.376 165.224 221.209 161.627" stroke="black" stroke-width="0.850844" stroke-miterlimit="10"/>
<path d="M238.543 176.881C251.317 179.637 265.14 177.939 277.036 172.156" stroke="black" stroke-width="0.850844" stroke-miterlimit="10"/>
<path d="M201.965 116.751L178.577 108.351" stroke="#FFE3A6" stroke-width="0.850844" stroke-miterlimit="10"/>
<path d="M206.729 100.874L183.482 92.1259" stroke="#FFE3A6" stroke-width="0.850844" stroke-miterlimit="10"/>
<path d="M251.683 66.7312L253.797 47.7108" stroke="#FFE3A6" stroke-width="0.850844" stroke-miterlimit="10"/>
<path d="M151.968 197.751C162.903 197.751 171.768 188.886 171.768 177.95C171.768 167.015 162.903 158.15 151.968 158.15C141.032 158.15 132.167 167.015 132.167 177.95C132.167 188.886 141.032 197.751 151.968 197.751Z" fill="#27243A"/>
<path d="M123.863 208.657C132.357 208.657 139.242 201.772 139.242 193.279C139.242 184.785 132.357 177.9 123.863 177.9C115.37 177.9 108.484 184.785 108.484 193.279C108.484 201.772 115.37 208.657 123.863 208.657Z" fill="#27243A"/>
<path d="M105.92 200.624C105.92 207.553 100.305 213.167 93.3764 213.167C86.4476 213.167 80.833 207.55 80.833 200.624C80.833 193.698 86.4476 188.08 93.3764 188.08C100.305 188.08 105.92 193.695 105.92 200.624Z" fill="#27243A"/>
<path d="M73.3053 198.708C73.3053 204.573 68.5502 209.325 62.6876 209.325C56.822 209.325 52.0698 204.57 52.0698 198.708C52.0698 192.842 56.8249 188.09 62.6876 188.09C68.5532 188.087 73.3053 192.842 73.3053 198.708Z" fill="#27243A"/>
<path d="M34.9752 149.211C27.0363 148.992 11.2441 152.888 3.08951 169.758C0.325056 175.476 -2.62548 190.161 4.09959 195.09C12.4195 201.189 23.9676 201.839 33.9297 202.326C37.3203 202.494 40.956 201.96 43.5256 199.742C44.9314 198.528 45.909 196.903 46.863 195.308C48.0148 193.383 49.1667 191.457 50.3186 189.528C52.1645 186.436 41.6944 174.413 39.94 170.998C36.5081 164.335 33.9445 156.798 34.9752 149.211Z" fill="#27243A"/>
<path d="M253.799 220.658C219.571 227.646 186.374 188.736 186.374 188.736L170.101 201.339C170.101 201.339 176.631 247.803 216.488 253.5C260.622 259.812 253.799 220.658 253.799 220.658Z" fill="#F98355"/>
<path d="M254.522 220.744C271.386 211.449 272.095 195.146 272.095 195.146C272.095 195.146 319.374 206.818 295.841 229.566C270.757 253.811 254.522 220.744 254.522 220.744Z" fill="#F98355"/>
<path d="M547.333 272.173L290.739 319.937L299.837 368.81L556.43 321.046L547.333 272.173Z" fill="#EAA242"/>
<path d="M334.366 311.809L319.413 314.593L328.51 363.465L343.463 360.682L334.366 311.809Z" fill="#D8892B"/>
<path d="M382.294 302.89L367.34 305.674L376.438 354.546L391.391 351.763L382.294 302.89Z" fill="#D8892B"/>
<path d="M430.215 293.981L415.261 296.764L424.359 345.637L439.312 342.853L430.215 293.981Z" fill="#D8892B"/>
<path d="M478.144 285.06L463.191 287.844L472.288 336.717L487.242 333.933L478.144 285.06Z" fill="#D8892B"/>
<path d="M526.08 276.12L511.127 278.904L520.224 327.777L535.178 324.993L526.08 276.12Z" fill="#D8892B"/>
<path d="M560.162 118.508L303.568 166.272L312.666 215.144L569.259 167.381L560.162 118.508Z" fill="#FFD652"/>
<path d="M347.19 158.147L332.236 160.93L341.334 209.803L356.287 207.019L347.19 158.147Z" fill="#F4B251"/>
<path d="M395.121 149.225L380.167 152.009L389.265 200.882L404.218 198.098L395.121 149.225Z" fill="#F4B251"/>
<path d="M443.051 140.304L428.097 143.087L437.195 191.96L452.148 189.177L443.051 140.304Z" fill="#F4B251"/>
<path d="M490.973 131.394L476.02 134.178L485.117 183.051L500.07 180.267L490.973 131.394Z" fill="#F4B251"/>
<path d="M538.903 122.474L523.949 125.258L533.047 174.13L548 171.347L538.903 122.474Z" fill="#F4B251"/>
<path d="M536.769 173.43L280.175 221.194L289.272 270.067L545.866 222.303L536.769 173.43Z" fill="#FFD652"/>
<path d="M323.793 213.081L308.839 215.865L317.937 264.738L332.89 261.954L323.793 213.081Z" fill="#F4B251"/>
<path d="M371.729 204.148L356.776 206.932L365.873 255.804L380.827 253.021L371.729 204.148Z" fill="#F4B251"/>
<path d="M419.658 195.223L404.705 198.007L413.803 246.88L428.756 244.096L419.658 195.223Z" fill="#F4B251"/>
<path d="M467.59 186.302L452.636 189.086L461.734 237.958L476.687 235.175L467.59 186.302Z" fill="#F4B251"/>
<path d="M515.512 177.396L500.559 180.18L509.657 229.052L524.61 226.269L515.512 177.396Z" fill="#F4B251"/>
<path d="M566.955 217.95L310.362 265.714L319.459 314.586L576.053 266.823L566.955 217.95Z" fill="#EAA242"/>
<path d="M353.987 257.589L339.033 260.373L348.131 309.246L363.084 306.462L353.987 257.589Z" fill="#D8892B"/>
<path d="M401.916 248.668L386.962 251.452L396.06 300.324L411.013 297.541L401.916 248.668Z" fill="#D8892B"/>
<path d="M449.837 239.761L434.884 242.545L443.981 291.417L458.935 288.634L449.837 239.761Z" fill="#D8892B"/>
<path d="M497.773 230.823L482.82 233.606L491.917 282.479L506.871 279.696L497.773 230.823Z" fill="#D8892B"/>
<path d="M545.704 221.902L530.751 224.685L539.848 273.558L554.802 270.774L545.704 221.902Z" fill="#D8892B"/>
<path d="M319.43 314.587L547.355 272.151" stroke="black" stroke-width="1.27627" stroke-miterlimit="10"/>
<path d="M309.996 263.645L545.338 219.83" stroke="black" stroke-width="1.27627" stroke-miterlimit="10"/>
<path d="M310.487 215.542L536.788 173.411" stroke="black" stroke-width="1.27627" stroke-miterlimit="10"/>
<path d="M168.224 228.422C145.796 227.944 147.278 207.332 128.905 220.209C110.242 233.29 101.65 256.221 94.4436 277.843C77.2456 329.437 63.2933 386.407 66.1877 441.135C66.994 456.345 69.4661 472.09 78.102 484.64C93.788 507.429 124.088 503.988 147.71 498.356C179.008 490.889 208.619 477.33 237.853 464.311C265.671 451.921 320.352 425.148 320.352 425.148L281.369 347.4C259.88 362.185 171.222 389.703 171.766 387.887L181.326 285.274" fill="#FFCBA4"/>
<path d="M171.769 387.884L124.351 403.083" stroke="black" stroke-width="0.850844" stroke-miterlimit="10"/>
<path d="M170.1 202.397C170.1 202.397 151.349 208.07 128.406 218.57C105.46 229.07 89.367 259.874 84.0655 284.518C78.764 309.162 67.8125 377.626 67.8125 377.626L189.508 380.397V288.186" fill="#DD5C3E"/>
<path d="M259.792 360.972C269.195 358.267 290.67 337.394 317.293 324.5C324.638 320.941 332.793 315.681 340.167 312.163C347.755 308.548 346.222 315.899 344.007 320.007C340.424 326.653 335.849 332.542 329.883 337.226C332.542 339.155 336.18 338.806 339.397 338.142C349.87 335.974 359.666 331.42 369.752 327.867C379.839 324.314 390.675 321.732 401.183 323.717C402.536 323.974 404.113 324.526 404.438 325.867C404.63 326.664 404.326 327.627 404.86 328.248C405.342 328.806 406.198 328.741 406.916 328.909C408.839 329.352 409.816 331.671 409.5 333.617C409.184 335.563 407.941 337.211 406.768 338.797C400.705 347.002 395.489 355.833 391.23 365.101C389.836 368.137 388.537 371.232 386.785 374.08C384.455 377.863 373.763 388.304 370.627 391.449C343.526 418.618 317.594 426.498 279.99 444.659" fill="#FFCBA4"/>
<path d="M329.813 337.394C319.91 338.859 310.084 340.856 300.394 343.369" stroke="black" stroke-width="0.850844" stroke-miterlimit="10"/>
<path d="M404.234 328.008C396.753 335.876 386.932 341.083 377.018 345.507C370.659 348.342 364.185 350.918 357.613 353.219" stroke="black" stroke-width="0.850844" stroke-miterlimit="10"/>
<path d="M401.591 346.873C388.959 356.471 374.891 364.18 360.003 369.659" stroke="black" stroke-width="0.850844" stroke-miterlimit="10"/>
<path d="M391.694 365.281C384.727 370.928 377.591 376.372 370.305 381.599C368.382 382.978 366.324 384.39 363.964 384.573" stroke="black" stroke-width="0.850844" stroke-miterlimit="10"/>
<path d="M70.5806 360.594L189.508 363.299" stroke="#F98355" stroke-width="0.850844" stroke-miterlimit="10"/>
<path d="M72.084 350.511L189.508 353.216" stroke="#F98355" stroke-width="0.850844" stroke-miterlimit="10"/>
<path d="M74.2397 339.031L189.508 341.736" stroke="#F98355" stroke-width="0.850844" stroke-miterlimit="10"/>
<path d="M189.507 380.397V288.186" stroke="black" stroke-width="0.850844" stroke-miterlimit="10"/>
</svg>
